<svg width="81" height="81" viewBox="0 0 81 81" fill="none" xmlns="http://www.w3.org/2000/svg">
<g clip-path="url(#clip0)">
<path d="M35.0999 14.85L37.8823 14.9772C37.4354 14.784 36.9845 14.6166 36.5323 14.4597L35.0999 14.85Z" fill="#BDDBFF"/>
<path d="M32.4003 37.8001C27.1308 37.7955 22.6273 41.5943 21.744 46.7893C20.8601 51.985 23.8554 57.0587 28.8302 58.7963C33.805 60.5339 39.3079 58.4265 41.8503 53.8109V43.3893C39.9611 39.9371 36.3363 37.7928 32.4003 37.8001Z" fill="#047496"/>
<path d="M76.9497 31.05H44.5499C43.0608 31.0547 41.8545 32.261 41.8499 33.75V76.9498C41.8545 78.4389 43.0608 79.6452 44.5499 79.6498H76.9497C78.4395 79.6452 79.6458 78.4389 79.6497 76.9498V33.75C79.6458 32.261 78.4395 31.0547 76.9497 31.05ZM58.0498 72.8998C58.0498 73.6454 57.4454 74.2498 56.6998 74.2498H48.5999C47.8544 74.2498 47.2499 73.6454 47.2499 72.8998V64.7999C47.2499 64.0543 47.8544 63.4499 48.5999 63.4499H56.6998C57.4454 63.4499 58.0498 64.0543 58.0498 64.7999V72.8998ZM58.0498 58.0499C58.0498 58.7954 57.4454 59.3999 56.6998 59.3999H48.5999C47.8544 59.3999 47.2499 58.7954 47.2499 58.0499V49.9499C47.2499 49.2044 47.8544 48.6 48.5999 48.6H56.6998C57.4454 48.6 58.0498 49.2044 58.0498 49.9499V58.0499ZM74.2497 72.8998C74.2497 73.6454 73.6453 74.2498 72.8998 74.2498H64.7998C64.0543 74.2498 63.4498 73.6454 63.4498 72.8998V49.9499C63.4498 49.2044 64.0543 48.6 64.7998 48.6H72.8998C73.6453 48.6 74.2497 49.2044 74.2497 49.9499V72.8998ZM74.2497 43.2C74.2497 43.9455 73.6453 44.55 72.8998 44.55H48.5999C47.8544 44.55 47.2499 43.9455 47.2499 43.2V37.8C47.2499 37.0545 47.8544 36.45 48.5999 36.45H72.8998C73.6453 36.45 74.2497 37.0545 74.2497 37.8V43.2Z" fill="#047496"/>
<path d="M76.9498 29.6998H54.4904C52.1595 25.5299 49.1867 21.7528 45.6818 18.507C47.6778 18.5268 49.6243 17.8841 51.2163 16.6791C53.8174 14.6746 57.4857 14.8414 59.8943 17.0733C61.4862 18.5334 63.5494 19.3732 65.7089 19.4398L65.8302 16.7398C64.2356 16.6963 62.7143 16.0595 61.564 14.9541C58.2444 12.001 53.3105 11.7755 49.7357 14.4135C48.4919 15.4168 46.9165 15.9138 45.3226 15.8057C44.7313 15.7853 44.1453 15.6877 43.5797 15.5144C44.3371 15.486 45.0886 15.37 45.8189 15.1683C47.8973 14.6363 49.7239 13.3951 50.9829 11.6588C52.8991 9.00764 56.406 8.05513 59.3999 9.37151C61.3649 10.2278 63.5672 10.3708 65.6265 9.7769L64.9179 7.1725C63.3893 7.62205 61.7499 7.50142 60.303 6.83368C56.2438 5.14355 51.5551 6.42235 48.9151 9.9384C48.0087 11.2495 46.6574 12.1862 45.1116 12.5738C43.5837 13.0233 41.9443 12.9007 40.5 12.2284C39.4453 11.8025 38.3294 11.5468 37.1943 11.471C38.301 9.62331 38.9701 7.54625 39.15 5.39997C39.15 2.27218 35.7441 0 31.0501 0C26.3561 0 22.9501 2.27218 22.9501 5.39997C23.2151 8.14083 24.2283 10.7558 25.8782 12.9601C11.2056 17.4444 0.000244141 40.0449 0.000244141 55.3497C0.000244141 71.1719 11.8977 80.9996 31.0501 80.9996C34.6228 81.0154 38.185 80.6074 41.6615 79.7847C42.4209 80.5625 43.463 81.0002 44.55 80.9996H76.9498C79.1871 80.9996 80.9998 79.1862 80.9998 76.9496V33.7498C80.9998 31.5132 79.1871 29.6998 76.9498 29.6998ZM25.6501 5.39997C25.6501 4.07305 27.6751 2.69999 31.0501 2.69999C34.4251 2.69999 36.4501 4.07305 36.4501 5.39997C36.1093 7.97603 34.9887 10.3866 33.2385 12.3081C31.7877 12.0972 30.3144 12.0972 28.8636 12.3081C27.1128 10.3866 25.9916 7.97669 25.6501 5.39997ZM31.0501 78.2996C17.3451 78.2996 2.70023 72.2708 2.70023 55.3497C2.70023 39.7259 15.6741 14.8499 31.0501 14.8499C38.2186 14.8499 45.5355 20.2308 51.358 29.6998H44.55C42.3134 29.6998 40.5 31.5132 40.5 33.7498V39.5776C35.6379 35.1921 28.1748 35.4485 23.6251 40.157C19.0748 44.8662 19.0748 52.3333 23.6251 57.0425C28.1748 61.751 35.6379 62.0074 40.5 57.6219V76.9496C40.5 77.059 40.5244 77.1632 40.5323 77.2706C37.4197 77.9647 34.2392 78.3095 31.0501 78.2996ZM40.5 53.4216C38.3287 57.082 33.9775 58.8387 29.8728 57.7128C25.7688 56.587 22.9231 52.856 22.9231 48.5997C22.9231 44.3434 25.7688 40.6125 29.8728 39.4866C33.9775 38.3608 38.3287 40.1175 40.5 43.7779V53.4216ZM78.2998 76.9496C78.2998 77.6951 77.6954 78.2996 76.9498 78.2996H44.55C43.8045 78.2996 43.2 77.6951 43.2 76.9496V33.7498C43.2 33.0043 43.8045 32.3998 44.55 32.3998H76.9498C77.6954 32.3998 78.2998 33.0043 78.2998 33.7498V76.9496Z" fill="#FFD809"/>
<path d="M72.8999 35.1003H48.5999C47.1088 35.1003 45.8999 36.3093 45.8999 37.8003V43.2003C45.8999 44.6914 47.1088 45.9003 48.5999 45.9003H72.8999C74.391 45.9003 75.5999 44.6914 75.5999 43.2003V37.8003C75.5999 36.3093 74.391 35.1003 72.8999 35.1003ZM48.5999 43.2003V37.8003H72.8999V43.2003H48.5999Z" fill="#FFD809"/>
<path d="M56.6999 47.25H48.5999C47.1088 47.25 45.8999 48.4589 45.8999 49.95V58.05C45.8999 59.5411 47.1088 60.75 48.5999 60.75H56.6999C58.191 60.75 59.3999 59.5411 59.3999 58.05V49.95C59.3999 48.4589 58.191 47.25 56.6999 47.25ZM48.5999 58.05V49.95H56.6999V58.05H48.5999Z" fill="#FFD809"/>
<path d="M56.6999 62.0996H48.5999C47.1088 62.0996 45.8999 63.3085 45.8999 64.7996V72.8996C45.8999 74.3907 47.1088 75.5996 48.5999 75.5996H56.6999C58.191 75.5996 59.3999 74.3907 59.3999 72.8996V64.7996C59.3999 63.3085 58.191 62.0996 56.6999 62.0996ZM48.5999 72.8996V64.7996H56.6999V72.8996H48.5999Z" fill="#FFD809"/>
<path d="M72.8996 47.25H64.7996C63.3085 47.25 62.0996 48.4589 62.0996 49.95V72.9C62.0996 74.3911 63.3085 75.6 64.7996 75.6H72.8996C74.3907 75.6 75.5996 74.3911 75.5996 72.9V49.95C75.5996 48.4589 74.3907 47.25 72.8996 47.25ZM64.7996 72.9V49.95H72.8996V72.9H64.7996Z" fill="#FFD809"/>
<path d="M53.9999 51.3H51.2999V52.6501H49.9499V55.3501H51.2999V56.7001H53.9999V55.3501H55.3499V52.6501H53.9999V51.3Z" fill="#FFD809"/>
<path d="M49.9499 67.4995H55.3499V70.1995H49.9499V67.4995Z" fill="#FFD809"/>
<path d="M66.1493 58.0498H71.5493V60.7498H66.1493V58.0498Z" fill="#FFD809"/>
<path d="M66.1493 62.0996H71.5493V64.7996H66.1493V62.0996Z" fill="#FFD809"/>
<path d="M32.3991 44.5502C33.1447 44.5502 33.7491 45.1547 33.7491 45.9002H36.4491C36.4425 44.1903 35.3615 42.6689 33.7491 42.0988V40.5002H31.0491V42.0988C29.4368 42.6689 28.3564 44.1903 28.3491 45.9002C28.3491 48.0848 30.3418 49.0795 31.796 49.8151C32.9396 50.3794 33.7491 50.8223 33.7491 51.3003C33.7491 52.0458 33.1447 52.6503 32.3991 52.6503C31.6536 52.6503 31.0491 52.0458 31.0491 51.3003H28.3491C28.3564 53.0102 29.4368 54.5316 31.0491 55.1017V56.7003H33.7491V55.1017C35.3615 54.5316 36.4425 53.0102 36.4491 51.3003C36.4491 49.1157 34.4564 48.121 33.0029 47.3854C31.8593 46.8211 31.0491 46.3782 31.0491 45.9002C31.0491 45.1547 31.6536 44.5502 32.3991 44.5502Z" fill="#FFD809"/>
</g>
<defs>
<clipPath id="clip0">
<rect width="81" height="81" fill="white"/>
</clipPath>
</defs>
</svg>
