<svg width="97" height="97" viewBox="0 0 97 97" fill="none" xmlns="http://www.w3.org/2000/svg">
<g clip-path="url(#clip0)">
<path d="M35.2694 72.5972C35.4821 73.464 36.357 73.9944 37.2239 73.7822C38.9563 73.3563 40.7064 74.4139 41.1347 76.1457C41.3474 77.0126 42.2223 77.543 43.0892 77.3308L83.9133 67.322C84.3302 67.2202 84.6895 66.9568 84.9121 66.5899C85.1347 66.223 85.2023 65.7826 85.0999 65.3658C84.678 63.6361 85.7339 61.8907 87.4618 61.4616C87.8784 61.3598 88.2375 61.0966 88.46 60.7301C88.6826 60.3635 88.7504 59.9236 88.6485 59.507L85.5687 46.9455C85.4666 46.5289 85.2031 46.1699 84.8362 45.9477C84.4693 45.7254 84.0291 45.6581 83.6126 45.7605C81.8787 46.185 80.1289 45.1241 79.7035 43.3905C79.6013 42.9738 79.3378 42.6149 78.9709 42.3926C78.604 42.1704 78.1639 42.103 77.7473 42.2055L36.9297 52.2191C36.0629 52.4318 35.5324 53.3067 35.7447 54.1736C35.949 55.0065 35.8141 55.8865 35.3697 56.6199C34.9252 57.3533 34.2076 57.8801 33.3747 58.0843C32.958 58.1865 32.5991 58.45 32.3768 58.8169C32.1546 59.1838 32.0872 59.624 32.1896 60.0405L35.2694 72.5972ZM64.2546 68.6185L63.8456 66.9501C65.791 65.6447 66.5251 63.1351 65.59 60.987C64.6548 58.8389 62.3178 57.6663 60.0367 58.2007C59.4016 58.3566 58.7352 58.1145 58.3482 57.5873C57.9612 57.0601 57.93 56.3517 58.269 55.7925C58.6081 55.2333 59.2506 54.9334 59.897 55.0327C60.5433 55.1321 61.0662 55.611 61.2217 56.2462C61.3239 56.6628 61.5874 57.0218 61.9543 57.244C62.3212 57.4663 62.7613 57.5336 63.1779 57.4312C65.7646 56.7942 63.9054 52.2094 60.137 51.8246L59.7312 50.1562C63.823 50.1562 67.2438 53.6531 68.272 57.8467C69.3875 62.4041 67.6189 66.8645 64.2546 68.6185ZM53.2968 54.3628C54.0034 52.8998 55.1536 51.697 56.5835 50.9257L56.9893 52.5861C55.0149 53.8781 54.2598 56.4056 55.202 58.5689C56.1442 60.7323 58.509 61.901 60.7998 61.3355C61.4349 61.1796 62.1014 61.4217 62.4883 61.9489C62.8753 62.4761 62.9065 63.1845 62.5675 63.7437C62.2285 64.3029 61.5859 64.6028 60.9395 64.5035C60.2932 64.4042 59.7703 63.9252 59.6148 63.29C59.5126 62.8734 59.2491 62.5144 58.8822 62.2922C58.5153 62.0699 58.0752 62.0026 57.6586 62.105C55.0525 62.7517 56.9408 67.3317 60.6996 67.7148L61.107 69.3751C54.5595 69.3848 50.0829 60.7195 53.2968 54.3628ZM82.7735 49.0876L85.1824 58.9056C83.1139 60.0236 81.8116 62.1725 81.7777 64.5235L69.976 67.4157C73.6685 60.9047 71.6496 52.6441 65.3701 48.5703L77.1508 45.6813C78.2687 47.7523 80.4202 49.0558 82.7735 49.0876ZM39.075 55.0191L50.8573 52.1302C47.1572 58.6472 49.1949 66.9197 55.4987 70.9724L43.6971 73.8679C42.5822 71.7923 40.4285 70.4855 38.0727 70.4551L35.6655 60.6371C37.7341 59.5193 39.0366 57.3702 39.0702 55.0191H39.075Z" fill="#1D87A3"/>
<path d="M5.45476 47.9695L19.468 73.4595C20.3196 75.0173 21.9542 75.9853 23.7296 75.9832C25.3608 75.9832 26.1772 75.3236 28.9029 73.8152L30.9092 81.9939C31.4437 84.1624 33.39 85.6855 35.6234 85.6832C36.4834 85.6832 32.875 86.4915 93.3044 71.6812C94.5539 71.3751 95.6306 70.5852 96.2976 69.4852C96.9646 68.3853 97.1673 67.0654 96.8611 65.8159L89.9304 37.555C89.2931 34.9539 86.6681 33.3616 84.0668 33.9983L76.3068 35.9011L64.9529 15.2611C63.6607 12.9137 60.7122 12.0553 58.3618 13.3422L53.2224 16.1665H27.4835C26.5906 16.1665 25.8668 16.8903 25.8668 17.7831C25.8668 18.676 26.5906 19.3998 27.4835 19.3998H47.3426L41.4612 22.6331H9.70013C8.80726 22.6331 8.08346 23.3569 8.08346 24.2498C8.08346 25.1427 8.80726 25.8665 9.70013 25.8665H35.5797L23.8185 32.3331H11.3168C10.4239 32.3331 9.70013 33.057 9.70013 33.9498C9.70013 34.8427 10.4239 35.5665 11.3168 35.5665H17.9451L7.36242 41.3865C5.03359 42.6902 4.18379 45.6227 5.45476 47.9695ZM20.3701 45.3085L30.9544 39.4885C30.2858 41.9508 30.3419 44.5538 31.1161 46.985L27.5417 47.8612C26.2922 48.1673 25.2155 48.9572 24.5485 50.0572C23.8815 51.1572 23.6788 52.4771 23.985 53.7265L25.6017 60.3548C24.8655 60.2684 24.1199 60.3105 23.3981 60.4793L18.519 51.6184C20.2346 50.0064 20.943 47.5919 20.3701 45.3085ZM64.6959 38.7497L53.2386 41.5595C51.9254 37.1358 48.5065 33.6497 44.1093 32.2507L54.7227 26.4145C56.3326 28.13 58.7472 28.8358 61.0277 28.2575L65.9052 37.1152C65.4157 37.5925 65.0049 38.1441 64.6878 38.7497H64.6959ZM34.2815 46.2058C33.0792 42.9666 33.8326 39.3252 36.2215 36.8291L37.0412 38.3197C36.139 39.3186 35.6967 40.6499 35.8218 41.9901C35.9468 43.3303 36.6278 44.5568 37.6992 45.3716L34.2815 46.2058ZM46.5084 43.2085C45.0008 42.1721 43.0389 42.0703 41.4321 42.9449C40.6521 43.3567 39.6861 43.0673 39.2609 42.2946C38.8358 41.5219 39.1084 40.551 39.8736 40.1125C40.2495 39.9056 40.6924 39.8566 41.1045 39.9763C41.5166 40.0961 41.8642 40.3749 42.0706 40.7511C42.3434 41.2678 42.8737 41.5971 43.4577 41.6125C44.0418 41.6279 44.5887 41.327 44.8883 40.8254C45.1879 40.3238 45.1935 39.6996 44.903 39.1927C43.9163 37.3942 41.8969 36.4202 39.8752 36.7677L39.0669 35.2836C43.7552 34.029 48.5098 37.5938 50.1039 42.3355L46.5084 43.2085ZM84.8347 37.1395C85.7016 36.9272 86.5766 37.4577 86.7893 38.3245L93.7199 66.5871C93.9322 67.454 93.4017 68.3289 92.5349 68.5416L36.0081 82.4029C35.1412 82.6152 34.2663 82.0847 34.0536 81.2179L27.1229 52.9537C27.0211 52.5372 27.0889 52.0972 27.3114 51.7307C27.5339 51.3641 27.893 51.101 28.3096 50.9992L84.8347 37.1395ZM8.92736 44.2108L59.9138 16.1778C60.2904 15.9687 60.7348 15.9186 61.1485 16.0385C61.5621 16.1584 61.9109 16.4384 62.1173 16.8164L73.0508 36.7014L69.5928 37.5485C69.5928 36.9212 69.9953 37.8508 63.173 25.4607C62.9652 25.0844 62.6162 24.8063 62.203 24.6879C60.9565 24.3274 60.4861 25.6676 58.5267 25.0969C57.6976 24.8588 56.9987 24.2979 56.5867 23.5401C56.3816 23.1624 56.0347 22.882 55.6224 22.7606C55.2102 22.6393 54.7666 22.6871 54.3896 22.8934L17.562 43.1503C16.7802 43.5772 16.491 44.556 16.9153 45.3392C17.773 46.9037 17.2015 48.8672 15.6381 49.7269C15.2596 49.9319 14.9785 50.2795 14.8571 50.6925C14.7357 51.1055 14.7841 51.5499 14.9915 51.9271L21.2318 63.2584C21.6588 64.0421 22.64 64.3315 23.424 63.905C24.3764 63.3953 25.5225 63.4044 26.4666 63.9293L28.0929 70.5576L24.4926 72.5445C23.7066 72.9745 22.7208 72.6892 22.2859 71.9059L8.28877 46.4143C8.07973 46.0377 8.02959 45.5933 8.14948 45.1797C8.26936 44.766 8.54936 44.4172 8.92736 44.2108Z" fill="#1D87A3"/>
<path d="M11.3172 85.6835H27.4838C28.3767 85.6835 29.1005 84.9597 29.1005 84.0669C29.1005 83.174 28.3767 82.4502 27.4838 82.4502H11.3172C10.4243 82.4502 9.70049 83.174 9.70049 84.0669C9.70049 84.9597 10.4243 85.6835 11.3172 85.6835Z" fill="#F8CC10"/>
<path d="M1.61665 85.6835H4.84999C5.74285 85.6835 6.46665 84.9597 6.46665 84.0669C6.46665 83.174 5.74285 82.4502 4.84999 82.4502H1.61665C0.723791 82.4502 -1.52588e-05 83.174 -1.52588e-05 84.0669C-1.52588e-05 84.9597 0.723791 85.6835 1.61665 85.6835Z" fill="#F8CC10"/>
<path d="M1.61665 35.5654H4.84999C5.74285 35.5654 6.46665 34.8416 6.46665 33.9487C6.46665 33.0558 5.74285 32.332 4.84999 32.332H1.61665C0.723791 32.332 -1.52588e-05 33.0558 -1.52588e-05 33.9487C-1.52588e-05 34.8416 0.723791 35.5654 1.61665 35.5654Z" fill="#F8CC10"/>
<path d="M4.85013 75.9833H14.5501C15.443 75.9833 16.1668 75.2595 16.1668 74.3667C16.1668 73.4738 15.443 72.75 14.5501 72.75H4.85013C3.95727 72.75 3.23346 73.4738 3.23346 74.3667C3.23346 75.2595 3.95727 75.9833 4.85013 75.9833Z" fill="#F8CC10"/>
<path d="M11.3167 64.666C11.3167 63.7731 10.5929 63.0493 9.70006 63.0493H3.23339C2.34053 63.0493 1.61672 63.7731 1.61672 64.666C1.61672 65.5588 2.34053 66.2827 3.23339 66.2827H9.70006C10.5929 66.2827 11.3167 65.5588 11.3167 64.666Z" fill="#F8CC10"/>
<path d="M1.61665 56.582H4.84999C5.74285 56.582 6.46665 55.8582 6.46665 54.9653C6.46665 54.0724 5.74285 53.3486 4.84999 53.3486H1.61665C0.723791 53.3486 -1.52588e-05 54.0724 -1.52588e-05 54.9653C-1.52588e-05 55.8582 0.723791 56.582 1.61665 56.582Z" fill="#F8CC10"/>
</g>
<defs>
<clipPath id="clip0">
<rect width="97" height="97" fill="white"/>
</clipPath>
</defs>
</svg>
