<svg width="87" height="87" viewBox="0 0 87 87" fill="none" xmlns="http://www.w3.org/2000/svg">
<g clip-path="url(#clip0)">
<mask id="path-1-outside-1" maskUnits="userSpaceOnUse" x="2.22818" y="-0.999023" width="83" height="89" fill="black">
<rect fill="white" x="2.22818" y="-0.999023" width="83" height="89"/>
<path d="M82.5307 40.0778C80.8799 38.2312 78.2527 37.758 76.1088 38.7403C73.9025 35.4601 69.3305 35.6213 67.1879 37.8529L55.3073 50.2194L42.676 48.4239L49.6561 42.7541C50.2966 42.2344 50.7825 41.5699 51.0845 40.8279H56.301C60.01 40.8279 63.0281 37.8098 63.0281 34.1007V24.9614C63.8864 25.3212 67.2264 26.5869 69.7254 23.4202C71.6198 21.02 71.191 17.5034 68.8201 15.6203L50.6823 1.21416C48.6458 -0.403418 45.8016 -0.403418 43.7652 1.21416L26.9221 14.5919C26.3705 15.0293 26.2789 15.8311 26.7163 16.3827C27.1544 16.9336 27.9562 17.0252 28.5071 16.5878L45.3503 3.21008C46.4535 2.33392 47.9947 2.33392 49.0965 3.21008L67.2344 17.6163C68.54 18.6531 68.7172 20.493 67.7096 21.8603C66.1007 24.0434 63.7331 22.5267 63.4881 22.3329L48.0166 10.0435C47.552 9.67507 46.8955 9.67507 46.4309 10.0435L30.9587 22.3329C29.6584 23.3657 27.7348 23.1679 26.7279 21.8477C25.2856 19.958 26.5825 18.1167 27.2125 17.6163L29.8024 15.5593C30.3534 15.1212 30.4456 14.32 30.0075 13.7685C29.5695 13.2175 28.7683 13.1253 28.2167 13.5634L25.6274 15.6203C24.4645 16.5443 22.0338 20.041 24.732 23.4328C27.1985 26.5345 30.6786 25.3636 31.4193 25.0205V34.1007C31.4193 35.2649 31.7121 36.38 32.2617 37.3664C29.2648 38.4874 26.562 40.3639 24.4811 42.8078L16.2412 52.4841L6.64129 57.7962C5.09141 58.6537 3.96966 60.0642 3.48446 61.7674C2.99859 63.4713 3.20833 65.2608 4.07321 66.8067L13.4846 83.6256C14.69 85.7788 16.9534 87.0008 19.2766 87.0008C20.3359 87.0008 21.4079 86.7466 22.3976 86.2116L28.842 82.7249C30.4516 81.854 31.6371 80.3387 32.0957 78.5671C32.5537 76.7949 32.2517 74.8945 31.2667 73.3526L18.6427 53.5952L26.4213 44.4606C28.7198 41.7611 31.8933 39.8568 35.3528 39.1001L46.1129 36.7803C47.2227 36.5765 47.917 37.1221 48.0093 37.1998C48.0345 37.2256 48.0372 37.2256 48.0704 37.2535C48.5967 37.6916 48.8954 38.3354 48.8908 39.0204C48.8868 39.7041 48.5795 40.3446 48.0485 40.7761L38.803 48.2858C38.41 48.6058 38.2434 49.1275 38.3788 49.6153C38.5143 50.1039 38.9258 50.4656 39.4276 50.5366L58.9142 53.3065C61.2685 53.6417 63.6368 52.9268 65.413 51.3464L76.4374 41.5368C77.6593 40.4495 79.5398 40.557 80.6297 41.7764C81.6406 42.9074 81.6399 44.6119 80.6277 45.7417L68.2161 59.5929C66.092 61.9639 63.2001 63.602 60.0751 64.2067L34.162 69.2181C33.4704 69.3515 33.0183 70.0206 33.1524 70.7115C33.2706 71.3209 33.6542 71.8572 34.6459 71.7205L60.559 66.7091C64.2276 65.9995 67.6213 64.0766 70.1144 61.2942L82.526 47.4422C84.4058 45.3441 84.4078 42.1786 82.5307 40.0778ZM29.6279 77.9286C29.3425 79.0331 28.6329 79.9404 27.6293 80.4827L21.1849 83.9694C19.2434 85.0201 16.7868 84.3073 15.7089 82.3811L6.2968 65.5621C5.76579 64.6123 5.63702 63.5131 5.93571 62.4663C6.23374 61.4196 6.92272 60.5527 7.87455 60.0257L16.6308 55.1809L29.1181 74.7253C29.7327 75.6864 29.9139 76.8241 29.6279 77.9286ZM34.8118 36.609C34.8098 36.6097 34.8078 36.6103 34.8058 36.6103C34.2622 35.8915 33.9682 35.0213 33.9682 34.1007V23.1978L47.2241 12.6693L60.4793 23.1978V34.1007C60.4793 36.4046 58.6049 38.279 56.301 38.279H54.7597V26.9434C54.7597 24.147 52.4844 21.8723 49.6879 21.8723H44.7595C41.9631 21.8723 39.6878 24.147 39.6878 26.9434V35.5583L34.8118 36.609ZM45.6251 34.2786C45.6145 34.2806 45.6038 34.2825 45.5932 34.2852L42.2359 35.0087V26.9434C42.2359 25.5528 43.3676 24.4211 44.7589 24.4211H49.6879C51.0792 24.4211 52.2109 25.5528 52.2109 26.9434V38.279H51.3852C51.2119 37.1327 49.8612 33.5338 45.6251 34.2786ZM63.7191 49.4421C62.5038 50.5227 60.8829 51.0112 59.2733 50.7829L58.417 50.6614L69.0258 39.6185C70.2113 38.3846 73.0967 38.5844 74.0452 40.2537L63.7191 49.4421Z"/>
</mask>
<path d="M82.5307 40.0778C80.8799 38.2312 78.2527 37.758 76.1088 38.7403C73.9025 35.4601 69.3305 35.6213 67.1879 37.8529L55.3073 50.2194L42.676 48.4239L49.6561 42.7541C50.2966 42.2344 50.7825 41.5699 51.0845 40.8279H56.301C60.01 40.8279 63.0281 37.8098 63.0281 34.1007V24.9614C63.8864 25.3212 67.2264 26.5869 69.7254 23.4202C71.6198 21.02 71.191 17.5034 68.8201 15.6203L50.6823 1.21416C48.6458 -0.403418 45.8016 -0.403418 43.7652 1.21416L26.9221 14.5919C26.3705 15.0293 26.2789 15.8311 26.7163 16.3827C27.1544 16.9336 27.9562 17.0252 28.5071 16.5878L45.3503 3.21008C46.4535 2.33392 47.9947 2.33392 49.0965 3.21008L67.2344 17.6163C68.54 18.6531 68.7172 20.493 67.7096 21.8603C66.1007 24.0434 63.7331 22.5267 63.4881 22.3329L48.0166 10.0435C47.552 9.67507 46.8955 9.67507 46.4309 10.0435L30.9587 22.3329C29.6584 23.3657 27.7348 23.1679 26.7279 21.8477C25.2856 19.958 26.5825 18.1167 27.2125 17.6163L29.8024 15.5593C30.3534 15.1212 30.4456 14.32 30.0075 13.7685C29.5695 13.2175 28.7683 13.1253 28.2167 13.5634L25.6274 15.6203C24.4645 16.5443 22.0338 20.041 24.732 23.4328C27.1985 26.5345 30.6786 25.3636 31.4193 25.0205V34.1007C31.4193 35.2649 31.7121 36.38 32.2617 37.3664C29.2648 38.4874 26.562 40.3639 24.4811 42.8078L16.2412 52.4841L6.64129 57.7962C5.09141 58.6537 3.96966 60.0642 3.48446 61.7674C2.99859 63.4713 3.20833 65.2608 4.07321 66.8067L13.4846 83.6256C14.69 85.7788 16.9534 87.0008 19.2766 87.0008C20.3359 87.0008 21.4079 86.7466 22.3976 86.2116L28.842 82.7249C30.4516 81.854 31.6371 80.3387 32.0957 78.5671C32.5537 76.7949 32.2517 74.8945 31.2667 73.3526L18.6427 53.5952L26.4213 44.4606C28.7198 41.7611 31.8933 39.8568 35.3528 39.1001L46.1129 36.7803C47.2227 36.5765 47.917 37.1221 48.0093 37.1998C48.0345 37.2256 48.0372 37.2256 48.0704 37.2535C48.5967 37.6916 48.8954 38.3354 48.8908 39.0204C48.8868 39.7041 48.5795 40.3446 48.0485 40.7761L38.803 48.2858C38.41 48.6058 38.2434 49.1275 38.3788 49.6153C38.5143 50.1039 38.9258 50.4656 39.4276 50.5366L58.9142 53.3065C61.2685 53.6417 63.6368 52.9268 65.413 51.3464L76.4374 41.5368C77.6593 40.4495 79.5398 40.557 80.6297 41.7764C81.6406 42.9074 81.6399 44.6119 80.6277 45.7417L68.2161 59.5929C66.092 61.9639 63.2001 63.602 60.0751 64.2067L34.162 69.2181C33.4704 69.3515 33.0183 70.0206 33.1524 70.7115C33.2706 71.3209 33.6542 71.8572 34.6459 71.7205L60.559 66.7091C64.2276 65.9995 67.6213 64.0766 70.1144 61.2942L82.526 47.4422C84.4058 45.3441 84.4078 42.1786 82.5307 40.0778ZM29.6279 77.9286C29.3425 79.0331 28.6329 79.9404 27.6293 80.4827L21.1849 83.9694C19.2434 85.0201 16.7868 84.3073 15.7089 82.3811L6.2968 65.5621C5.76579 64.6123 5.63702 63.5131 5.93571 62.4663C6.23374 61.4196 6.92272 60.5527 7.87455 60.0257L16.6308 55.1809L29.1181 74.7253C29.7327 75.6864 29.9139 76.8241 29.6279 77.9286ZM34.8118 36.609C34.8098 36.6097 34.8078 36.6103 34.8058 36.6103C34.2622 35.8915 33.9682 35.0213 33.9682 34.1007V23.1978L47.2241 12.6693L60.4793 23.1978V34.1007C60.4793 36.4046 58.6049 38.279 56.301 38.279H54.7597V26.9434C54.7597 24.147 52.4844 21.8723 49.6879 21.8723H44.7595C41.9631 21.8723 39.6878 24.147 39.6878 26.9434V35.5583L34.8118 36.609ZM45.6251 34.2786C45.6145 34.2806 45.6038 34.2825 45.5932 34.2852L42.2359 35.0087V26.9434C42.2359 25.5528 43.3676 24.4211 44.7589 24.4211H49.6879C51.0792 24.4211 52.2109 25.5528 52.2109 26.9434V38.279H51.3852C51.2119 37.1327 49.8612 33.5338 45.6251 34.2786ZM63.7191 49.4421C62.5038 50.5227 60.8829 51.0112 59.2733 50.7829L58.417 50.6614L69.0258 39.6185C70.2113 38.3846 73.0967 38.5844 74.0452 40.2537L63.7191 49.4421Z" fill="#047496"/>
<path d="M82.5307 40.0778C80.8799 38.2312 78.2527 37.758 76.1088 38.7403C73.9025 35.4601 69.3305 35.6213 67.1879 37.8529L55.3073 50.2194L42.676 48.4239L49.6561 42.7541C50.2966 42.2344 50.7825 41.5699 51.0845 40.8279H56.301C60.01 40.8279 63.0281 37.8098 63.0281 34.1007V24.9614C63.8864 25.3212 67.2264 26.5869 69.7254 23.4202C71.6198 21.02 71.191 17.5034 68.8201 15.6203L50.6823 1.21416C48.6458 -0.403418 45.8016 -0.403418 43.7652 1.21416L26.9221 14.5919C26.3705 15.0293 26.2789 15.8311 26.7163 16.3827C27.1544 16.9336 27.9562 17.0252 28.5071 16.5878L45.3503 3.21008C46.4535 2.33392 47.9947 2.33392 49.0965 3.21008L67.2344 17.6163C68.54 18.6531 68.7172 20.493 67.7096 21.8603C66.1007 24.0434 63.7331 22.5267 63.4881 22.3329L48.0166 10.0435C47.552 9.67507 46.8955 9.67507 46.4309 10.0435L30.9587 22.3329C29.6584 23.3657 27.7348 23.1679 26.7279 21.8477C25.2856 19.958 26.5825 18.1167 27.2125 17.6163L29.8024 15.5593C30.3534 15.1212 30.4456 14.32 30.0075 13.7685C29.5695 13.2175 28.7683 13.1253 28.2167 13.5634L25.6274 15.6203C24.4645 16.5443 22.0338 20.041 24.732 23.4328C27.1985 26.5345 30.6786 25.3636 31.4193 25.0205V34.1007C31.4193 35.2649 31.7121 36.38 32.2617 37.3664C29.2648 38.4874 26.562 40.3639 24.4811 42.8078L16.2412 52.4841L6.64129 57.7962C5.09141 58.6537 3.96966 60.0642 3.48446 61.7674C2.99859 63.4713 3.20833 65.2608 4.07321 66.8067L13.4846 83.6256C14.69 85.7788 16.9534 87.0008 19.2766 87.0008C20.3359 87.0008 21.4079 86.7466 22.3976 86.2116L28.842 82.7249C30.4516 81.854 31.6371 80.3387 32.0957 78.5671C32.5537 76.7949 32.2517 74.8945 31.2667 73.3526L18.6427 53.5952L26.4213 44.4606C28.7198 41.7611 31.8933 39.8568 35.3528 39.1001L46.1129 36.7803C47.2227 36.5765 47.917 37.1221 48.0093 37.1998C48.0345 37.2256 48.0372 37.2256 48.0704 37.2535C48.5967 37.6916 48.8954 38.3354 48.8908 39.0204C48.8868 39.7041 48.5795 40.3446 48.0485 40.7761L38.803 48.2858C38.41 48.6058 38.2434 49.1275 38.3788 49.6153C38.5143 50.1039 38.9258 50.4656 39.4276 50.5366L58.9142 53.3065C61.2685 53.6417 63.6368 52.9268 65.413 51.3464L76.4374 41.5368C77.6593 40.4495 79.5398 40.557 80.6297 41.7764C81.6406 42.9074 81.6399 44.6119 80.6277 45.7417L68.2161 59.5929C66.092 61.9639 63.2001 63.602 60.0751 64.2067L34.162 69.2181C33.4704 69.3515 33.0183 70.0206 33.1524 70.7115C33.2706 71.3209 33.6542 71.8572 34.6459 71.7205L60.559 66.7091C64.2276 65.9995 67.6213 64.0766 70.1144 61.2942L82.526 47.4422C84.4058 45.3441 84.4078 42.1786 82.5307 40.0778ZM29.6279 77.9286C29.3425 79.0331 28.6329 79.9404 27.6293 80.4827L21.1849 83.9694C19.2434 85.0201 16.7868 84.3073 15.7089 82.3811L6.2968 65.5621C5.76579 64.6123 5.63702 63.5131 5.93571 62.4663C6.23374 61.4196 6.92272 60.5527 7.87455 60.0257L16.6308 55.1809L29.1181 74.7253C29.7327 75.6864 29.9139 76.8241 29.6279 77.9286ZM34.8118 36.609C34.8098 36.6097 34.8078 36.6103 34.8058 36.6103C34.2622 35.8915 33.9682 35.0213 33.9682 34.1007V23.1978L47.2241 12.6693L60.4793 23.1978V34.1007C60.4793 36.4046 58.6049 38.279 56.301 38.279H54.7597V26.9434C54.7597 24.147 52.4844 21.8723 49.6879 21.8723H44.7595C41.9631 21.8723 39.6878 24.147 39.6878 26.9434V35.5583L34.8118 36.609ZM45.6251 34.2786C45.6145 34.2806 45.6038 34.2825 45.5932 34.2852L42.2359 35.0087V26.9434C42.2359 25.5528 43.3676 24.4211 44.7589 24.4211H49.6879C51.0792 24.4211 52.2109 25.5528 52.2109 26.9434V38.279H51.3852C51.2119 37.1327 49.8612 33.5338 45.6251 34.2786ZM63.7191 49.4421C62.5038 50.5227 60.8829 51.0112 59.2733 50.7829L58.417 50.6614L69.0258 39.6185C70.2113 38.3846 73.0967 38.5844 74.0452 40.2537L63.7191 49.4421Z" stroke="#047496" stroke-width="0.8" mask="url(#path-1-outside-1)"/>
<path d="M25.6173 77.7839L25.6173 77.7839C25.0331 79.8974 23.1079 81.2873 21.0145 81.2873C20.5944 81.2873 20.1683 81.2311 19.7453 81.1141L25.6173 77.7839ZM25.6173 77.7839C25.9567 76.5553 25.7972 75.2667 25.1684 74.1579C24.5395 73.049 23.5157 72.2512 22.2871 71.9119C21.0585 71.5725 19.7699 71.7319 18.6611 72.3601L18.661 72.3602M25.6173 77.7839L18.661 72.3602M18.661 72.3602C17.5523 72.9897 16.7544 74.0128 16.415 75.2414L16.415 75.2414M18.661 72.3602L16.415 75.2414M16.415 75.2414C16.0757 76.4707 16.2351 77.7586 16.864 78.8674C17.4928 79.9762 18.5166 80.7747 19.7452 81.1141L16.415 75.2414ZM21.5016 74.754L21.5013 74.7539C21.3399 74.7091 21.1761 74.6875 21.0125 74.6875C20.7021 74.6875 20.395 74.7674 20.1156 74.9256C19.6918 75.1663 19.3871 75.557 19.2572 76.0269L21.5016 74.754ZM21.5016 74.754C21.972 74.8839 22.3621 75.1885 22.6028 75.613C22.8435 76.0375 22.9044 76.5285 22.7745 76.9983L22.7675 77.0238M21.5016 74.754L22.7675 77.0238M22.7675 77.0238C22.6338 77.4828 22.333 77.8639 21.9161 78.1003C21.4916 78.341 21 78.4019 20.5302 78.272L20.5301 78.272C20.0596 78.1421 19.6696 77.8375 19.4289 77.413C19.1882 76.9885 19.1273 76.4975 19.2572 76.027L22.7675 77.0238Z" fill="#F8CC10" stroke="#FFD809" stroke-width="0.4"/>
</g>
<defs>
<clipPath id="clip0">
<rect width="87" height="87" fill="white"/>
</clipPath>
</defs>
</svg>
