<svg width="84" height="84" viewBox="0 0 84 84" fill="none" xmlns="http://www.w3.org/2000/svg">
<g clip-path="url(#clip0)">
<path d="M54.4732 22.9724L54.4732 22.9723C54.0416 22.6804 53.5558 22.4775 53.0454 22.3748C52.9409 22.6531 52.8078 22.9196 52.6486 23.1704C65.4424 26.7031 74.3258 38.3354 74.3497 51.6253V51.6256V76.8258V76.8259C74.3448 80.773 71.1463 83.9709 67.1999 83.9758H67.1997H16.7993H16.7991C12.8521 83.9709 9.65344 80.773 9.64926 76.8259L9.64926 76.8258L9.64926 51.6256V51.6253C9.67249 38.3363 18.5546 26.7048 31.347 23.1711C30.7099 22.1935 30.4956 20.9962 30.7592 19.8537C31.028 18.6887 31.7689 17.6904 32.8002 17.0944L26.6122 4.71855L54.4732 22.9724ZM54.4732 22.9724C55.4711 23.6468 56.6412 24.0207 57.8449 24.0515L57.8449 24.0515M54.4732 22.9724L57.8449 24.0515M57.8449 24.0515L57.8493 24.0515M57.8449 24.0515L57.8493 24.0515M57.8493 24.0515C58.2291 24.0501 58.6074 24.0152 58.9807 23.9481C60.5571 23.6788 61.9624 22.7941 62.8862 21.4889L62.8864 21.4891M57.8493 24.0515L62.8864 21.4891M62.8864 21.4891L62.8905 21.4826M62.8864 21.4891L62.8905 21.4826M62.8905 21.4826C63.3505 20.7574 64.0946 20.2596 64.9397 20.1104C65.7856 19.9618 66.6548 20.1749 67.3343 20.6993L67.3342 20.6995M62.8905 21.4826L67.3342 20.6995M67.3342 20.6995L67.3406 20.7039M67.3342 20.6995L67.3406 20.7039M67.3406 20.7039C68.6564 21.6146 70.2793 21.9651 71.8532 21.6784L72 21.6516M67.3406 20.7039L72 21.6516M72 21.6516L71.974 21.5047M72 21.6516L71.974 21.5047M71.974 21.5047L71.4866 18.7471L71.4605 18.5994M71.974 21.5047L71.4605 18.5994M71.4605 18.5994L71.3128 18.6255M71.4605 18.5994L71.3128 18.6255M71.3128 18.6255C70.4677 18.7747 69.5985 18.5609 68.9189 18.0371L68.9191 18.0369M71.3128 18.6255L68.9191 18.0369M68.9191 18.0369L68.912 18.0321M68.9191 18.0369L68.912 18.0321M68.912 18.0321C66.1705 16.156 62.4324 16.8155 60.4974 19.5157L60.4972 19.5155M68.912 18.0321L60.4972 19.5155M60.4972 19.5155L60.4927 19.5227M60.4972 19.5155L60.4927 19.5227M60.4927 19.5227C60.0327 20.2479 59.2886 20.7458 58.4427 20.895L58.4427 20.895M60.4927 19.5227L58.4427 20.895M58.4427 20.895L58.4392 20.8957M58.4427 20.895L58.4392 20.8957M58.4392 20.8957C58.2705 20.9296 58.0994 20.9467 57.9282 20.947C58.532 20.7082 59.0921 20.3678 59.5838 19.9388C60.814 18.9174 61.5882 17.4486 61.736 15.8564L61.7362 15.8565M58.4392 20.8957L61.7362 15.8565M61.7362 15.8565L61.7365 15.8488M61.7362 15.8565L61.7365 15.8488M61.7365 15.8488C61.7724 14.9907 62.1678 14.188 62.8266 13.6368L62.8276 13.636M61.7365 15.8488L62.8276 13.636M62.8276 13.636C63.4819 13.0786 64.3427 12.8286 65.193 12.9477L65.193 12.9479M62.8276 13.636L65.193 12.9479M65.193 12.9479L65.2002 12.9486M65.193 12.9479L65.2002 12.9486M65.2002 12.9486C66.7974 13.0938 68.3846 12.5831 69.5974 11.5352L69.7094 11.4384M65.2002 12.9486L69.7094 11.4384M69.7094 11.4384L69.6141 11.3252M69.7094 11.4384L69.6141 11.3252M69.6141 11.3252L67.8101 9.1814L67.7154 9.06889M69.6141 11.3252L67.7154 9.06889M67.7154 9.06889L67.601 9.16131M67.7154 9.06889L67.601 9.16131M67.601 9.16131C66.9344 9.69998 66.0797 9.9481 65.2282 9.85016L65.2282 9.85005M67.601 9.16131L65.2282 9.85005M65.2282 9.85005L65.2225 9.84961M65.2282 9.85005L65.2225 9.84961M65.2225 9.84961C61.9105 9.59662 59.0022 12.0361 58.6763 15.3425L58.6761 15.3425M65.2225 9.84961L58.6761 15.3425M58.6761 15.3425L58.6757 15.3511M58.6761 15.3425L58.6757 15.3511M58.6757 15.3511C58.6405 16.2077 58.2458 17.0105 57.589 17.5624C56.9314 18.1137 56.0726 18.3639 55.2224 18.2506L55.2224 18.2503M58.6757 15.3511L55.2224 18.2503M55.2224 18.2503L55.2141 18.2497M55.2224 18.2503L55.2141 18.2497M55.2141 18.2497C54.3606 18.1836 53.5026 18.2895 52.6916 18.562C52.3204 17.9589 51.8074 17.4554 51.1976 17.0956L57.3936 4.71853L57.3937 4.71838M55.2141 18.2497L57.3937 4.71838M57.3937 4.71838C57.6343 4.23634 57.6078 3.6642 57.3233 3.20637L57.3232 3.20628M57.3937 4.71838L57.3232 3.20628M57.3232 3.20628C57.0387 2.74918 56.537 2.47217 55.9988 2.47519L55.9982 2.4752M57.3232 3.20628L55.9982 2.4752M55.9982 2.4752C55.0527 2.48372 54.1453 2.10564 53.4861 1.42883L53.4863 1.42868M55.9982 2.4752L53.4863 1.42868M53.4863 1.42868L53.4803 1.42316M53.4863 1.42868L53.4803 1.42316M53.4803 1.42316C50.951 -0.906801 47.0584 -0.906821 44.5297 1.42317L44.5296 1.42306M53.4803 1.42316L44.5296 1.42306M44.5296 1.42306L44.5249 1.42784M44.5296 1.42306L44.5249 1.42784M44.5249 1.42784C43.8585 2.09941 42.9515 2.47656 42.0056 2.47656C41.0592 2.47656 40.1528 2.09942 39.4864 1.42784L39.4865 1.42773M44.5249 1.42784L39.4865 1.42773M39.4865 1.42773L39.4815 1.42309M39.4865 1.42773L39.4815 1.42309M39.4815 1.42309C36.9501 -0.905417 33.0569 -0.905417 30.5256 1.42309L30.5254 1.42293M39.4815 1.42309L30.5254 1.42293M30.5254 1.42293L30.5198 1.42867M30.5254 1.42293L30.5198 1.42867M30.5198 1.42867C29.858 2.10626 28.9477 2.48437 28.0008 2.47519H27.9994M30.5198 1.42867L27.9994 2.47519M27.9994 2.47519C27.4623 2.47519 26.9628 2.75276 26.6804 3.2099M27.9994 2.47519L26.6804 3.2099M26.6804 3.2099C26.3973 3.66644 26.3716 4.23788 26.6122 4.71846L26.6804 3.2099ZM67.1997 80.8758C69.4363 80.8758 71.2497 79.0624 71.2497 76.8258V51.6257C71.2334 37.0241 59.4003 25.1917 44.7994 25.1754H39.1996C24.598 25.1917 12.765 37.024 12.7493 51.6256C12.7493 51.6256 12.7493 51.6257 12.7493 51.6257M67.1997 80.8758L71.3997 76.8258C71.3997 79.1452 69.5191 81.0258 67.1997 81.0258H16.7993C14.4792 81.0258 12.5993 79.1452 12.5993 76.8258V51.6256L12.7493 51.6257M67.1997 80.8758H16.7993C14.562 80.8758 12.7493 79.0624 12.7493 76.8258L12.7493 51.6257M67.1997 80.8758L12.7493 51.6257M32.4749 3.83152L32.4752 3.83177L32.4822 3.82465C33.1493 3.15299 34.0564 2.77519 35.0035 2.77519C35.95 2.77519 36.8578 3.153 37.5249 3.82465L37.5248 3.82476L37.5297 3.82933C40.0597 6.15718 43.9523 6.15716 46.4829 3.82935L46.483 3.82947L46.4879 3.82455C47.1536 3.15294 48.0593 2.77519 49.005 2.77519C49.9501 2.77519 50.8564 3.15295 51.5221 3.82455L51.5219 3.82478L51.5294 3.83142C52.1701 4.39676 52.9019 4.85011 53.6935 5.17182L48.0414 16.4753H35.9569L30.3068 5.17314C31.0992 4.85089 31.8323 4.39752 32.4749 3.83152ZM34.9994 22.0753C34.3085 22.0753 33.7494 21.5157 33.7494 20.8253C33.7494 20.135 34.3085 19.5753 34.9994 19.5753H48.9995C49.6899 19.5753 50.2496 20.135 50.2496 20.8253C50.2496 21.5156 49.6899 22.0753 48.9995 22.0753H34.9994Z" fill="#047496" stroke="#047496" stroke-width="0.3"/>
<path d="M32.5031 61.7282L32.3971 61.8343L32.5031 61.9404L34.4835 63.9208L34.5896 64.0268L34.6956 63.9208L51.4958 47.1199L51.6018 47.0139L51.4958 46.9078L49.5161 44.9281L49.41 44.822L49.3039 44.9281L32.5031 61.7282Z" fill="#047496" stroke="#047496" stroke-width="0.3"/>
<path d="M47.5993 55.6757C45.1963 55.6757 43.2492 57.6234 43.2492 60.0257C43.2492 62.428 45.1963 64.3758 47.5993 64.3758C50.0016 64.3758 51.9493 62.428 51.9493 60.0257C51.9493 57.6234 50.0016 55.6757 47.5993 55.6757ZM47.5993 61.2757C46.9083 61.2757 46.3493 60.7161 46.3493 60.0257C46.3493 59.3354 46.9083 58.7757 47.5993 58.7757C48.2896 58.7757 48.8493 59.3354 48.8493 60.0257C48.8493 60.716 48.2896 61.2757 47.5993 61.2757Z" fill="#047496" stroke="#FFD809" stroke-width="0.3"/>
<path d="M36.3994 53.176C38.8017 53.176 40.7495 51.2283 40.7495 48.826C40.7495 46.4237 38.8017 44.476 36.3994 44.476C33.9964 44.476 32.0494 46.4237 32.0494 48.826C32.0494 51.2283 33.9964 53.176 36.3994 53.176ZM36.3994 47.576C37.0897 47.576 37.6494 48.1357 37.6494 48.826C37.6494 49.5163 37.0897 50.076 36.3994 50.076C35.7085 50.076 35.1494 49.5164 35.1494 48.826C35.1494 48.1357 35.7085 47.576 36.3994 47.576Z" fill="#047496" stroke="#FFD809" stroke-width="0.3"/>
<path d="M42.0002 34.6757H42C31.0917 34.6757 22.2499 43.5182 22.2499 54.4258C22.2499 65.3335 31.0917 74.176 42 74.176C52.9077 74.176 61.7502 65.3335 61.7502 54.4258V54.4257C61.7385 43.5229 52.9029 34.6874 42.0002 34.6757ZM41.9999 71.076C32.8043 71.0759 25.3499 63.6214 25.3499 54.4258C25.3499 45.2302 32.8044 37.7757 42 37.7757C51.195 37.7757 58.6501 45.2301 58.6502 54.4257C58.64 63.6173 51.1909 71.0658 41.9999 71.076Z" fill="#FFD809" stroke="#FFD809" stroke-width="0.3"/>
</g>
<defs>
<clipPath id="clip0">
<rect width="84" height="84" fill="white"/>
</clipPath>
</defs>
</svg>
